<?xml version="1.0" encoding="UTF-8"?>
<!DOCTYPE svg PUBLIC "-//W3C//DTD SVG 1.1//EN" "http://www.w3.org/Graphics/SVG/1.1/DTD/svg11.dtd">
<svg xmlns="http://www.w3.org/2000/svg" version="1.1" width="42px" height="42px" style="shape-rendering:geometricPrecision; text-rendering:geometricPrecision; image-rendering:optimizeQuality; fill-rule:evenodd; clip-rule:evenodd" xmlns:xlink="http://www.w3.org/1999/xlink">
<g><path style="opacity:0.901" fill="#e96067" d="M 22.5,1.5 C 26.5,1.5 30.5,1.5 34.5,1.5C 34.9684,6.36971 34.3018,11.0364 32.5,15.5C 26.8604,19.9752 22.0271,19.3085 18,13.5C 16.4742,8.23886 17.9742,4.23886 22.5,1.5 Z"/></g>
<g><path style="opacity:0.958" fill="#fad22f" d="M 4.5,2.5 C 9.87143,4.37161 13.3714,8.03827 15,13.5C 15.6667,19.8333 15.6667,26.1667 15,32.5C 12.8396,36.9173 9.50627,38.2507 5,36.5C 4.50014,25.1716 4.33348,13.8382 4.5,2.5 Z"/></g>
<g><path style="opacity:0.907" fill="#5cc97b" d="M 17.5,20.5 C 21.9671,20.1326 26.3004,20.6326 30.5,22C 34.6622,25.4777 35.4956,29.6444 33,34.5C 29.205,37.8034 25.0383,38.3034 20.5,36C 19.2986,35.0975 18.4652,33.9308 18,32.5C 17.5012,28.5138 17.3345,24.5138 17.5,20.5 Z"/></g>
</svg>
